#!OML:ASF H:\Dans Jumps\Project 1\Capture day 1\Session 1\subject.ASF
:FULLY-SPECIFIED
:DEGREES
263
root -0.0532025 13.6212 -15.5106 26.0162 1.89427 -0.966033
lowerback 33.2385 0.859608 -0.998653
upperback 6.57571 1.14116 3.27167
thorax -9.87246 0.545822 3.58214
lowerneck -23.9223 0.283063 -1.20101
upperneck 12.0747 1.08249 -1.72278
head 7.59326 0.276386 -0.243428
rclavicle 1.59028e-015 -6.16232e-015
rhumerus -15.198 -21.2895 -72.6635
rradius 22.9666
rwrist 34.7177
rhand -21.7023 -23.7834
rfingers 7.12502
rthumb 4.6962 -53.7114
lclavicle 1.59028e-015 -6.16232e-015
lhumerus -6.57875 16.0492 83.1955
lradius 14.3289
lwrist 10.8973
lhand -30.4809 -14.3432
lfingers 7.12502
lthumb -3.78187 15.603
rfemur -79.413 -4.1609 20.567
rtibia 89.1321
rfoot -32.1905 -12.8972
rtoes -4.03753
lfemur -79.4893 4.41257 -21.7245
ltibia 88.2574
lfoot -29.123 16.5372
ltoes -9.816
264
root -0.0565288 13.7625 -15.4261 25.7334 1.97257 -0.993728
lowerback 32.6407 0.813462 -1.03214
upperback 6.45206 1.07854 3.29776
thorax -9.77194 0.520975 3.6545
lowerneck -23.8226 0.270862 -1.26158
upperneck 12.6981 1.07949 -1.62907
head 7.786 0.274763 -0.202771
rclavicle 7.95139e-016 9.54166e-015
rhumerus -12.939 -19.8301 -74.0765
rradius 23.7632
rwrist 33.5039
rhand -22.0266 -23.8891
rfingers 7.12502
rthumb 4.38312 -53.8238
lclavicle 7.95139e-016 9.54166e-015
lhumerus -4.96921 13.346 84.1203
lradius 15.5049
lwrist 13.6409
lhand -30.8353 -15.3104
lfingers 7.12502
lthumb -4.12408 14.6294
rfemur -77.8114 -4.23016 20.6211
rtibia 87.7312
rfoot -32.0204 -12.8002
rtoes -4.25266
lfemur -77.9265 4.51499 -21.6295
ltibia 86.8581
lfoot -28.9356 16.3524
ltoes -10.0805
265
root -0.0593354 13.9106 -15.3393 25.4101 2.04437 -1.01692
lowerback 32.0289 0.759789 -1.05166
upperback 6.34683 1.00852 3.30841
thorax -9.64017 0.491647 3.70498
lowerneck -23.6795 0.269324 -1.2892
upperneck 13.3262 1.08841 -1.58702
head 7.97465 0.275219 -0.183048
rclavicle 1.07344e-014 -2.72335e-014
rhumerus -10.8618 -18.3918 -75.3896
rradius 24.6315
rwrist 32.4244
rhand -22.258 -24.0049
rfingers 7.12502
rthumb 4.15964 -53.9441
lclavicle 1.07344e-014 -2.72335e-014
lhumerus -3.58091 10.5021 84.8286
lradius 16.7532
lwrist 15.6968
lhand -31.2135 -16.2268
lfingers 7.12502
lthumb -4.48928 13.7056
rfemur -76.113 -4.30624 20.6751
rtibia 86.2378
rfoot -31.817 -12.7098
rtoes -4.4381
lfemur -76.2642 4.61521 -21.5389
ltibia 85.3642
lfoot -28.7072 16.1561
ltoes -10.2849
266
root -0.061551 14.0661 -15.2489 25.0283 2.1096 -1.02346
lowerback 31.2047 0.701086 -1.07861
upperback 6.65673 0.929795 3.17044
thorax -9.64955 0.487438 3.88774
lowerneck -23.4958 0.286708 -1.27216
upperneck 13.9591 1.12292 -1.6245
head 8.15979 0.281757 -0.193902
rclavicle -3.57812e-015 -7.15625e-015
rhumerus -8.96337 -16.9962 -76.6074
rradius 25.5709
rwrist 31.3186
rhand -22.4532 -24.1029
rfingers 7.12502
rthumb 3.97111 -54.0456
lclavicle -3.57812e-015 -7.15625e-015
lhumerus -2.34481 7.69981 85.3559
lradius 18.0542
lwrist 17.2493
lhand -31.4305 -16.8806
lfingers 7.12502
lthumb -4.69886 13.0473
rfemur -74.29 -4.39657 20.7146
rtibia 84.6432
rfoot -31.5712 -12.6343
rtoes -4.64115
lfemur -74.4715 4.7098 -21.4652
ltibia 83.7667
lfoot -28.43 15.9458
ltoes -10.4398
267
root -0.0637733 14.2297 -15.155 24.5829 2.17735 -0.999819
lowerback 30.5995 0.639586 -1.0901
upperback 6.59164 0.848119 3.16268
thorax -9.42624 0.448692 3.90934
lowerneck -23.2618 0.319118 -1.2275
upperneck 14.5877 1.18155 -1.72818
head 8.33656 0.294213 -0.228512
rclavicle 1.78906e-014 1.59028e-015
rhumerus -7.21966 -15.6441 -77.7348
rradius 26.5452
rwrist 30.0882
rhand -22.6835 -24.1866
rfingers 7.12502
rthumb 3.74873 -54.1334
lclavicle 1.78906e-014 1.59028e-015
lhumerus -1.19848 5.03908 85.7525
lradius 19.3914
lwrist 18.5288
lhand -31.4718 -17.0838
lfingers 7.12502
lthumb -4.73868 12.8432
rfemur -72.3326 -4.5086 20.7271
rtibia 82.94
rfoot -31.2705 -12.577
rtoes -4.884
lfemur -72.5385 4.78929 -21.4183
ltibia 82.0548
lfoot -28.0897 15.7136
ltoes -10.5504
268
root -0.0659622 14.4022 -15.0568 24.0659 2.2416 -0.93876
lowerback 29.9977 0.581943 -1.11976
upperback 6.56541 0.764418 3.15042
thorax -9.15809 0.407949 3.93561
lowerneck -22.9725 0.356725 -1.18892
upperneck 15.2114 1.25466 -1.85803
head 8.50317 0.310407 -0.269332
rclavicle -1.59028e-015 7.15625e-015
rhumerus -5.60421 -14.3227 -78.7693
rradius 27.4966
rwrist 28.7476
rhand -22.9923 -24.2539
rfingers 7.12502
rthumb 3.45052 -54.2057
lclavicle -1.59028e-015 7.15625e-015
lhumerus -0.0934078 2.60679 86.0658
lradius 20.7527
lwrist 19.7849
lhand -31.2677 -16.8156
lfingers 7.12502
lthumb -4.54162 13.1157
rfemur -70.2245 -4.63832 20.697
rtibia 81.1213
rfoot -30.9113 -12.5201
rtoes -5.13364
lfemur -70.4517 4.85965 -21.4097
ltibia 80.2253
lfoot -27.6651 15.4526
ltoes -10.6412
269
root -0.0685491 14.5837 -14.9539 23.4726 2.30843 -0.835205
lowerback 29.4093 0.530929 -1.17717
upperback 6.57977 0.679958 3.13393
thorax -8.84869 0.365943 3.9721
lowerneck -22.6235 0.3852 -1.18601
upperneck 15.83 1.32064 -1.95745
head 8.65774 0.324634 -0.295267
rclavicle -4.77083e-015 -2.42517e-014
rhumerus -4.07802 -13.0615 -79.7154
rradius 28.3421
rwrist 27.4662
rhand -23.3636 -24.2471
rfingers 7.12502
rthumb 3.09193 -54.2044
lclavicle -4.77083e-015 -2.42517e-014
lhumerus 1.00215 0.407477 86.3249
lradius 22.1187
lwrist 21.1788
lhand -30.8148 -16.2056
lfingers 7.12502
lthumb -4.1043 13.7346
rfemur -67.9547 -4.78408 20.6141
rtibia 79.1862
rfoot -30.4944 -12.426
rtoes -5.31243
lfemur -68.2103 4.91302 -21.4364
ltibia 78.2846
lfoot -27.1321 15.1472
ltoes -10.7247
270
root -0.0711806 14.7747 -14.846 22.7989 2.37423 -0.703704
lowerback 28.8448 0.488468 -1.25973
upperback 6.63276 0.598694 3.11404
thorax -8.5064 0.32442 4.01702
lowerneck -22.2067 0.393706 -1.23864
upperneck 16.443 1.3607 -1.98268
head 8.79777 0.331765 -0.290607
rclavicle 1.59028e-015 -1.23246e-014
rhumerus -2.6205 -11.8804 -80.583
rradius 29.0229
rwrist 26.4686
rhand -23.7207 -24.1643
rfingers 7.12502
rthumb 2.74711 -54.1263
lclavicle 1.59028e-015 -1.23246e-014
lhumerus 2.07873 -1.59843 86.5471
lradius 23.455
lwrist 22.6857
lhand -30.3447 -15.5776
lfingers 7.12502
lthumb -3.65036 14.3708
rfemur -65.5165 -4.93294 20.4851
rtibia 77.1302
rfoot -29.9869 -12.2856
rtoes -5.44969
lfemur -65.8188 4.96049 -21.4859
ltibia 76.2448
lfoot -26.4569 14.7874
ltoes -10.8432
271
root -0.0740042 14.9749 -14.7335 22.066 2.44382 -0.563831
lowerback 28.2889 0.452193 -1.35433
upperback 6.71897 0.521742 3.0886
thorax -8.13041 0.283566 4.0599
lowerneck -21.7209 0.378383 -1.34159
upperneck 17.0465 1.36086 -1.90998
head 8.92088 0.328312 -0.249771
rclavicle -6.75868e-015 -2.3059e-014
rhumerus -1.22122 -10.8025 -81.3957
rradius 29.523
rwrist 25.8906
rhand -23.9752 -24.0301
rfingers 7.12502
rthumb 2.50133 -53.9952
lclavicle -6.75868e-015 -2.3059e-014
lhumerus 3.13467 -3.42671 86.7348
lradius 24.7295
lwrist 24.2146
lhand -29.9367 -15.1372
lfingers 7.12502
lthumb -3.2563 14.8177
rfemur -62.9426 -5.07378 20.3328
rtibia 74.9605
rfoot -29.3573 -12.0847
rtoes -5.53282
lfemur -63.3235 5.0123 -21.5351
ltibia 74.1308
lfoot -25.6133 14.3341
ltoes -11.0041
272
root -0.0766597 15.1848 -14.6162 21.2761 2.53402 -0.429518
lowerback 27.7482 0.414105 -1.43665
upperback 6.83437 0.44595 3.0558
thorax -7.72862 0.241674 4.08598
lowerneck -21.1713 0.341237 -1.46279
upperneck 17.6454 1.3158 -1.75648
head 9.02982 0.311913 -0.184353
rclavicle -1.19271e-015 -1.66979e-014
rhumerus 0.109537 -9.87111 -82.1766
rradius 29.8675
rwrist 25.7503
rhand -24.0371 -23.8439
rfingers 7.12502
rthumb 2.44157 -53.8097
lclavicle -1.19271e-015 -1.66979e-014
lhumerus 4.1552 -5.09394 86.8932
lradius 25.9203
lwrist 25.6281
lhand -29.645 -14.982
lfingers 7.12502
lthumb -2.97465 14.977
rfemur -60.2454 -5.21642 20.1775
rtibia 72.6882
rfoot -28.558 -11.8214
rtoes -5.63348
lfemur -60.7518 5.06312 -21.5622
ltibia 71.9666
lfoot -24.5629 13.7644
ltoes -11.2639
273
root -0.0793901 15.4039 -14.4954 20.464 2.63486 -0.325093
lowerback 27.1989 0.379717 -1.49702
upperback 6.97048 0.380915 3.0167
thorax -7.30016 0.203361 4.08757
lowerneck -20.5401 0.282985 -1.58111
upperneck 18.2113 1.22206 -1.54239
head 9.11188 0.28065 -0.105049
rclavicle -9.93923e-015 3.57812e-014
rhumerus 1.34867 -9.07332 -82.9402
rradius 30.1284
rwrist 25.8439
rhand -23.9081 -23.6395
rfingers 7.12502
rthumb 2.56608 -53.6038
lclavicle -9.93923e-015 3.57812e-014
lhumerus 5.13258 -6.58918 87.0349
lradius 27.0142
lwrist 26.7739
lhand -29.4861 -15.0409
lfingers 7.12502
lthumb -2.82119 14.9202
rfemur -57.4966 -5.33757 20.0443
rtibia 70.3391
rfoot -27.5278 -11.503
rtoes -5.83514
lfemur -58.1737 5.12833 -21.5407
ltibia 69.7827
lfoot -23.2887 13.041
ltoes -11.6134
274
root -0.0818133 15.6321 -14.3714 19.6439 2.75247 -0.251659
lowerback 26.6348 0.347207 -1.52455
upperback 7.12181 0.327166 2.97309
thorax -6.84852 0.16922 4.0606
lowerneck -19.8411 0.208629 -1.66475
upperneck 18.745 1.0876 -1.31553
head 9.17031 0.234986 -0.032277
rclavicle -1.90833e-014 -2.70347e-014
rhumerus 2.47692 -8.41783 -83.6918
rradius 30.3609
rwrist 25.9253
rhand -23.6715 -23.3928
rfingers 7.12502
rthumb 2.79461 -53.3542
lclavicle -1.90833e-014 -2.70347e-014
lhumerus 6.06738 -7.90803 87.1815
lradius 27.9931
lwrist 27.6134
lhand -29.4284 -15.2436
lfingers 7.12502
lthumb -2.76541 14.7182
rfemur -54.7387 -5.4503 19.9369
rtibia 67.9454
rfoot -26.2293 -11.1091
rtoes -6.17339
lfemur -55.6267 5.19384 -21.4597
ltibia 67.6014
lfoot -21.7903 12.1169
ltoes -11.9787
275
root -0.0839886 15.8685 -14.2462 18.8495 2.88562 -0.208029
lowerback 26.0416 0.319963 -1.51554
upperback 7.27996 0.289629 2.9262
thorax -6.37655 0.142153 4.00316
lowerneck -19.0797 0.115902 -1.70458
upperneck 19.2295 0.912515 -1.09911
head 9.20025 0.17323 0.024618
rclavicle -1.19271e-015 -7.55382e-015
rhumerus 3.47085 -7.87045 -84.4178
rradius 30.6324
rwrist 25.7593
rhand -23.4117 -23.1356
rfingers 7.12502
rthumb 3.04549 -53.0936
lclavicle -1.19271e-015 -7.55382e-015
lhumerus 6.96748 -9.07222 87.3516
lradius 28.841
lwrist 28.1528
lhand -29.4684 -15.5202
lfingers 7.12502
lthumb -2.80407 14.4411
rfemur -52.0541 -5.55811 19.8544
rtibia 65.5506
rfoot -24.6286 -10.6104
rtoes -6.61826
lfemur -53.1749 5.24168 -21.316
ltibia 65.4408
lfoot -20.0511 10.9794
ltoes -12.3081
